<?xml version="1.0" encoding="UTF-8"?><svg id="Layer_1" xmlns="http://www.w3.org/2000/svg" width="695.06" height="805.49" viewBox="0 0 695.06 805.49"><defs><style>.cls-1{stroke-width:5px;}.cls-1,.cls-2{stroke:#1d1d1b;stroke-miterlimit:10;}.cls-1,.cls-2,.cls-3{fill:#fff;}.cls-2{stroke-width:3px;}.cls-4{fill:#1d1d1b;}.cls-4,.cls-5,.cls-3{stroke-width:0px;}.cls-5{fill:#a8daf1;}</style></defs><path class="cls-1" d="m213.83,305.3c-39.5,22.24-142.54-45.39-168.82-136.55-5.07-17.59-19.83-68.8,9.93-109.24,2.22-3.01,29.73-39.31,67.03-37.24,46.59,2.59,73.05,63.05,94.34,111.72,13.34,30.48,34.75,81.34,17.38,136.55-5.39,17.14-9.01,28.65-19.86,34.76Z"/><path class="cls-1" d="m246.62,304.52c-45.28,2.26-107.27-104.27-90.06-197.57,3.32-18.01,12.98-70.42,57.67-93.3,3.33-1.7,44.15-21.9,76.61-3.38,40.53,23.12,37.2,89.04,34.51,142.09-1.68,33.23-5.24,88.3-45.44,129.93-12.48,12.92-20.86,21.61-33.29,22.23Z"/><ellipse class="cls-4" cx="240.2" cy="427.49" rx="250.2" ry="154.93" transform="translate(-136.9 114.06) rotate(-20.94)"/><circle class="cls-4" cx="523.65" cy="272.94" r="137.33"/><ellipse class="cls-2" cx="466.07" cy="225.5" rx="72.39" ry="84.45"/><ellipse class="cls-5" cx="466.01" cy="226.77" rx="42.6" ry="49.7"/><ellipse class="cls-4" cx="473.53" cy="237.92" rx="26.85" ry="31.33"/><ellipse class="cls-3" cx="457.18" cy="225.5" rx="16.96" ry="19.79"/><ellipse class="cls-2" cx="621.17" cy="216.13" rx="72.39" ry="84.45"/><ellipse class="cls-5" cx="621.12" cy="217.4" rx="42.6" ry="49.7"/><ellipse class="cls-4" cx="628.64" cy="228.55" rx="26.85" ry="31.33"/><ellipse class="cls-3" cx="612.29" cy="216.13" rx="16.96" ry="19.79"/><path class="cls-4" d="m631.93,336.25c10.49-1.41,13.8,3.59,19.45.97,6-2.78,5.39-9.84,10.7-10.7,3.47-.56,7.64,1.83,8.75,4.86,1.8,4.89-3.89,12.65-3.89,12.65,0,0,6.3,4.45,7.78,9.73,1.05,3.72.08,9.23-2.92,10.7-4.28,2.1-8.09-6.32-19.46-9.73-10.12-3.03-14.05,1.56-22.37-2.92-4.51-2.43-9.72-7.2-8.75-10.7.98-3.56,8.01-4.5,10.7-4.86Z"/><path class="cls-4" d="m345.26,418.27c37.76,28.08,78.74,59.43,116,88.45,19.17,14.93,39.22,28.79,57.23,45.15,18.17,16.35,35.81,33.15,51.63,51.94,0,0-1.02,1.23-1.02,1.23-10.83-5.96-21.1-12.6-31.2-19.45-20.09-13.77-39.58-28.32-57.66-44.64-9.02-8.15-17.99-16.37-27.14-24.36-13.69-11.92-41.15-36.14-54.69-48.24-18.11-16.22-36.25-32.42-54.18-48.85,0,0,1.02-1.23,1.02-1.23h0Z"/><path class="cls-4" d="m336.49,427.01c30.13,36.14,62.61,76.23,92.03,113.17,15.14,19,31.38,37.18,45.06,57.31,13.83,20.15,27.04,40.62,38.02,62.59,0,0-1.28.96-1.28.96-9.13-8.33-17.56-17.2-25.77-26.22-16.3-18.1-31.84-36.81-45.59-56.91-6.86-10.04-13.65-20.13-20.67-30.05-10.51-14.8-31.53-44.78-41.86-59.71-13.81-20.01-27.64-40.01-41.22-60.19,0,0,1.28-.96,1.28-.96h0Z"/><path class="cls-4" d="m125.76,518.63c30.13,36.14,62.61,76.23,92.03,113.17,15.14,19,31.38,37.18,45.06,57.31,13.83,20.15,27.04,40.62,38.02,62.59,0,0-1.28.96-1.28.96-9.13-8.33-17.56-17.2-25.77-26.22-16.3-18.1-31.84-36.81-45.59-56.91-6.86-10.04-13.65-20.13-20.67-30.05-10.51-14.8-31.53-44.78-41.86-59.71-13.81-20.01-27.64-40.01-41.22-60.19l1.28-.96h0Z"/><path class="cls-4" d="m153.73,510.46c8.76,46.23,17.68,97.05,25.43,143.64,3.99,23.96,9.35,47.74,11.53,71.98,2.29,24.33,3.89,48.64,2.81,73.18,0,0-1.59.22-1.59.22-3.93-11.72-6.99-23.56-9.78-35.44-5.45-23.74-9.94-47.64-12.19-71.89-1.12-12.11-2.15-24.23-3.47-36.31-1.99-18.04-5.8-54.46-7.57-72.53-2.34-24.2-4.71-48.4-6.77-72.64,0,0,1.59-.22,1.59-.22h0Z"/><path class="cls-4" d="m119.43,510.46c8.76,46.23,17.68,97.05,25.43,143.64,3.99,23.96,9.35,47.74,11.53,71.98,2.29,24.33,3.89,48.64,2.81,73.18,0,0-1.59.22-1.59.22-3.93-11.72-6.99-23.56-9.78-35.44-5.45-23.74-9.94-47.64-12.19-71.89-1.12-12.11-2.15-24.23-3.47-36.31-1.99-18.04-5.8-54.46-7.57-72.53-2.34-24.2-4.71-48.4-6.77-72.64l1.59-.22h0Z"/><path class="cls-4" d="m110.93,515.82c-2.94,46.96-6.87,98.41-10.87,145.46-2.06,24.21-2.74,48.57-6.63,72.6-3.79,24.15-8.25,48.09-15.37,71.6,0,0-1.59-.18-1.59-.18-.91-12.33-.95-24.56-.71-36.76.59-24.35,2.15-48.62,5.97-72.67,1.91-12.01,3.91-24.01,5.62-36.04,2.53-17.98,7.85-54.2,10.6-72.15,3.71-24.03,7.4-48.06,11.4-72.06,0,0,1.59.18,1.59.18h0Z"/></svg>