<?xml version="1.0" encoding="UTF-8"?><svg id="Layer_1" xmlns="http://www.w3.org/2000/svg" width="715.51" height="715.71" viewBox="0 0 715.51 715.71"><defs><style>.cls-1{fill:#1d1d1b;}.cls-1,.cls-2,.cls-3,.cls-4,.cls-5,.cls-6{stroke-width:0px;}.cls-2{fill:#e36c69;}.cls-3{fill:#dd88ad;}.cls-4{fill:#a8daf1;}.cls-5{fill:#be2b51;}.cls-6{fill:#fff;}</style></defs><path class="cls-3" d="m353.36,334.61c-38.29-100.41-169.12-127.74-191.76-132.47-32.57-6.8-109.24-22.82-143.44,17.37-7.84,9.21-13.56,21.51-15.72,73.37-4.51,108.11-6.84,163.87,31.44,196.52,32.76,27.95,78.69,24.82,96.95,23.58,43.29-2.94,134.41-44,145.42-49.57.75-.38,3.64-1.88,4.45-1.02,1.08,1.15-2.14,5.78-3.19,7.3-28.36,40.88-149.97,68.03-149.97,68.03-29.9,6.67-43.92,8.64-51.73,21.45-10.39,17.06-1.56,39.81,6.31,59.3,9.55,23.65,34.57,85.62,89.57,95.88,26.69,4.98,48.05-4.52,71.91-15.14,13.15-5.85,72.94-32.45,103.45-95.88,14.68-30.51,14.61-71.22,13.88-151.39-.61-66.58-.91-99.87-7.57-117.33Z"/><path class="cls-3" d="m362.15,334.61c38.29-100.41,169.12-127.74,191.76-132.47,32.57-6.8,109.24-22.82,143.44,17.37,7.84,9.21,13.56,21.51,15.72,73.37,4.51,108.11,6.84,163.87-31.44,196.52-32.76,27.95-78.69,24.82-96.95,23.58-43.29-2.94-134.41-44-145.42-49.57-.75-.38-3.64-1.88-4.45-1.02-1.08,1.15,2.14,5.78,3.19,7.3,28.36,40.88,149.97,68.03,149.97,68.03,29.9,6.67,43.92,8.64,51.73,21.45,10.39,17.06,1.56,39.81-6.31,59.3-9.55,23.65-34.57,85.62-89.57,95.88-26.69,4.98-48.05-4.52-71.91-15.14-13.15-5.85-72.94-32.45-103.45-95.88-14.68-30.51-14.61-71.22-13.88-151.39.61-66.58.91-99.87,7.57-117.33Z"/><circle class="cls-1" cx="361.18" cy="152.54" r="71.77"/><ellipse class="cls-1" cx="361.18" cy="442.36" rx="37.28" ry="242.82"/><path class="cls-1" d="m381.07,115.54c19.28-50.23,58.51-92.78,107.32-115.54-2.89,1.7-5.76,3.43-8.62,5.17-2.83,1.78-5.65,3.59-8.4,5.48-38.99,25.93-70.02,62.76-90.3,104.89h0Z"/><path class="cls-1" d="m343.07,115.54c-20.28-42.13-51.31-78.96-90.3-104.89-2.75-1.89-5.57-3.7-8.4-5.48C241.51,3.43,238.65,1.7,235.75,0c48.8,22.76,88.04,65.31,107.32,115.54h0Z"/><circle class="cls-6" cx="330.91" cy="133.12" r="26.18"/><circle class="cls-4" cx="330.89" cy="133.52" r="15.4"/><circle class="cls-1" cx="333.61" cy="136.97" r="9.71"/><circle class="cls-6" cx="327.7" cy="133.12" r="6.13"/><circle class="cls-6" cx="392.77" cy="133.52" r="26.18"/><circle class="cls-4" cx="392.75" cy="133.91" r="15.4"/><circle class="cls-1" cx="395.47" cy="137.37" r="9.71"/><circle class="cls-6" cx="389.56" cy="133.52" r="6.13"/><circle class="cls-2" cx="100.55" cy="293.12" r="68.81"/><circle class="cls-2" cx="190.01" cy="616.38" r="68.81"/><circle class="cls-2" cx="100.55" cy="442.36" r="45.74"/><circle class="cls-2" cx="235.75" cy="379.78" r="45.74"/><circle class="cls-2" cx="613.9" cy="292.83" r="68.81"/><circle class="cls-2" cx="524.44" cy="616.09" r="68.81"/><circle class="cls-2" cx="613.9" cy="442.07" r="45.74"/><circle class="cls-2" cx="478.69" cy="379.49" r="45.74"/><path class="cls-5" d="m360.01,188.18c-1-.9-2.12-1.68-3.03-2.67-1.66-1.81-4.7-2.02-6.37-1.81-3.04.37-6.48,2.74-6.68,5.4-.29,3.75,5.91,6.6,10.93,8.91,2.57,1.18,4.27,1.59,6.1,1.52,2.21-.08,3.84-.83,6.04-2.01,7.76-4.17,11.64-6.25,11.45-8.7-.2-2.54-4.25-4-4.85-4.21-4.31-1.55-9.01.47-9.98,1.93-.4.6-.83.96-1.68,1.68-.2.17-.49.4-.89.42-.5.02-.89-.33-1.04-.46Z"/></svg>